<svg version="1.1" id="Layer_1" xmlns="http://www.w3.org/2000/svg" xmlns:xlink="http://www.w3.org/1999/xlink" x="0px" y="0px" viewBox="-843.2 468.4 984 144.9" style="enable-background:new -843.2 468.4 984 144.9;" xml:space="preserve">
 <style type="text/css">
  .st0{filter:url(#Adobe_OpacityMaskFilter);}
	.st1{fill:#FFFFFF;}
	.st2{mask:url(#b);fill:#4E6066;}
	.st3{fill:#4E6066;}
	.st4{filter:url(#Adobe_OpacityMaskFilter_1_);}
	.st5{mask:url(#d);fill:#4E6066;}
 </style>
 <g>
  <g transform="translate(66 5)">
   <defs>
    <filter id="Adobe_OpacityMaskFilter" filterUnits="userSpaceOnUse" x="-560.5" y="492.9" width="635.2" height="83.4">
     <feColorMatrix type="matrix" values="1 0 0 0 0  0 1 0 0 0  0 0 1 0 0  0 0 0 1 0">
     </feColorMatrix>
    </filter>
   </defs>
   <mask maskUnits="userSpaceOnUse" x="-560.5" y="492.9" width="635.2" height="83.4" id="b">
    <g class="st0">
     <path id="a" class="st1" d="M74.8,576.3v-83.4h-635.2v83.4H74.8z">
     </path>
    </g>
   </mask>
   <path class="st2" d="M74.8,555.1c-11.2,16.3-30.1,21.2-47.9,21.2C-3.7,576.3-29,560.2-29,535c0-24.1,25.3-41.2,56.8-41.2
			c14.5,0,28.8,2.8,39.9,12.8l0.9,0.8c0.5,0.4,1,1,1.5,1.5c0.7,0.7,1.2,1.2,1.2,1.2c-1.3,1.4-2.6,2.2-3.8,2.6
			c-1.3,0.4-2.6,0.3-3.6,0c-2.1-0.7-3.5-2.2-3.5-2.2c-7.8-7.7-17.4-10.4-28.1-10.4C9.5,500-5,513.2-5,535.4
			c0,19.6,11.4,31.2,30.6,33.1c1.8,0.3,3.8,0.5,6,0.5c3.3,0,6.7-0.4,9.9-1.1c4.3-0.8,8.4-2.3,12.2-4.4c5.6-2.9,10.5-6.8,13.8-11.5
			L74.8,555.1L74.8,555.1z M-504.5,576.3c-30.6,0-55.9-16.2-55.9-41.3c0-24.1,25.3-41.2,56.8-41.2c14.5,0,28.8,2.8,39.9,12.8
			l0.9,0.8c0.5,0.4,1,1,1.5,1.5c0.6,0.7,1.2,1.2,1.2,1.2c-1.3,1.4-2.6,2.2-3.8,2.6c-1.3,0.4-2.6,0.3-3.6,0c-2.1-0.7-3.5-2.2-3.5-2.2
			c-7.8-7.7-17.4-10.4-28.1-10.4c-22.7,0-37.2,13.2-37.2,35.4c0,19.6,11.4,31.2,30.6,33.1c1.8,0.3,3.8,0.5,6,0.5
			c3.3,0,6.7-0.4,9.9-1.1c4.3-0.8,8.4-2.3,12.2-4.4c5.7-2.9,10.5-6.8,13.8-11.5l7.3,3.1C-467.8,571.4-486.7,576.3-504.5,576.3
			L-504.5,576.3z M-260,518.7c0,13-12.7,24.2-30.5,24.2h-25.9v-3.5c0-1.9,1.6-3.5,3.5-3.5h11.8c10.2,0,18.6-7.6,18.6-16.9
			c0-9.3-8.4-16.9-18.6-16.9h-18.6v72.9h-22.4v-79.8h51.6C-272.7,495.1-260,505.7-260,518.7z M-109.6,495.1l68,0v7h-45.6v26.8h42.5
			v6.9h-42.5V568h45.6v7h-68C-109.6,574.9-109.6,495.1-109.6,495.1z M-379.5,574.9l-14.6-25h-30.2l3-5.4c0.6-1,1.7-1.5,2.8-1.5
			l20.3,0l-12.9-22.1l-31.2,54h-11.5l48.2-82l50.2,82C-355.5,574.9-379.5,574.9-379.5,574.9z M-133.6,495.1l9.5,0v7h-30.1v72.9
			h-22.2v-72.9l-30.1,0l0-7L-133.6,495.1L-133.6,495.1z M-243.7,574.8h22.6V495h-22.6C-243.7,495-243.7,574.8-243.7,574.8z">
   </path>
  </g>
  <path class="st3" d="M-643.1,468.4h-100.4V510c0,14.9,12.3,26.9,27.3,26.9h52.5c18.8,0,34.2,15.2,34.2,33.8V610
		c36.4-5.9,64.3-35.2,64.3-70.3C-565.2,500.5-600.3,468.4-643.1,468.4">
  </path>
  <g>
   <defs>
    <filter id="Adobe_OpacityMaskFilter_1_" filterUnits="userSpaceOnUse" x="-843.2" y="470.2" width="185.9" height="143">
     <feColorMatrix type="matrix" values="1 0 0 0 0  0 1 0 0 0  0 0 1 0 0  0 0 0 1 0">
     </feColorMatrix>
    </filter>
   </defs>
   <mask maskUnits="userSpaceOnUse" x="-843.2" y="470.2" width="185.9" height="143" id="d">
    <g class="st4">
     <path id="c" class="st1" d="M-843.2,470.2v143h185.9v-143H-843.2z">
     </path>
    </g>
   </mask>
   <path class="st5" d="M-684.4,544.1h-52c-18.7,0-34-15-34-33.6v-40.3c-40.4,2.3-72.7,33.5-72.7,71.4c0,39.4,34.9,71.6,77.5,71.6
			h108.4v-42C-657.3,556.3-669.5,544.1-684.4,544.1">
   </path>
  </g>
 </g>
</svg>